<?xml version="1.0" encoding="utf-8"?>
<!-- Generator: Adobe Illustrator 23.0.1, SVG Export Plug-In . SVG Version: 6.00 Build 0)  -->
<svg version="1.1" id="Capa_1" xmlns="http://www.w3.org/2000/svg" xmlns:xlink="http://www.w3.org/1999/xlink" x="0px" y="0px"
	 viewBox="0 0 368 161.9" style="enable-background:new 0 0 368 161.9;" xml:space="preserve">
<style type="text/css">
	.st0{fill:#B3C7C3;}
	.st1{fill:#5B8E83;}
	.st2{font-family:'BrushScriptMT';}
	.st3{font-size:21.411px;}
	.st4{fill:#32655B;}
</style>
<title>Logo Completo</title>
<g id="Línea">
	<path class="st0" d="M353.6,25.1l-8.5,9.7c-35.1-2.5-133.6,28.5-162.3,101v-6.8C218.6,43.7,353.6,25.1,353.6,25.1z"/>
	<path class="st0" d="M12,25.1l8.5,9.7c35.1-2.5,133.6,28.5,162.3,101v-6.8C147,43.7,12,25.1,12,25.1z"/>
</g>
<g id="Sombra">
	<path class="st0" d="M119.1,102.1l-14.5,0.1c3-2.2,3.8-4.2,3.9-5.6c0.4-6.4-11.8-13.6-30.5-18.8c-0.3,0.7-6.3,15-7.7,20
		c-0.2,0.6-0.6,1.8,0.1,2.7s2.5,0.5,4.2,1.5c-8.9,0.2-13.4,0.1-13.4-0.1c0-0.4,0,0,0,0c1.1-1,2.1-2.1,3.2-3.2
		c7-17.7,14.1-35.4,21.1-53.1L83,44l15.7-0.1c-1.1,0.4-2.1,1-3,1.7C103.5,64.3,111.3,83.2,119.1,102.1z M89.5,49.3l-8.6,23.1
		l19.3,7.7C96.7,69.8,93.1,59.6,89.5,49.3z"/>
	<path class="st0" d="M158.2,69c-5.3,10.8,22.8,7.2,25.1,18.5c0.4,19.6-26.6,13.2-28.4,14l-1-7.5c1.3,2.2,3.2,3.9,5.5,5.1
		c6.2,2.9,19.1-1.4,19.4-7.2c0.6-10.2-25.3-8.4-26-18.8c-0.8-12.2,15.5-9.5,22.1-5.8c0,0,1.2,0.2,1.6-1.8c0.1-0.4,0.1-0.7,0.1-0.7
		c-0.1,0.7,0.9,8.3,0.9,8.3C164.6,59.7,158.2,69,158.2,69z"/>
	<path class="st0" d="M190.4,67.4l-2.9-2.8h24.4c0.5,1.2,2.7,6.6,2.7,6.6c-8.5-7.9-19.1-3.8-19.6-2.6l-0.1,7.2l10.1-0.1
		c1.4-0.5,2.6-1.4,3.5-2.6c0.3,2.2,0.3,4.3,0.2,6.5l-3.3-1.4L195,78.4v20.7c0.5,1,8.5,3.1,14.2,1.7l6.2-6l-1.1,7.7h-27.9l4-2.6"/>
	<path class="st0" d="M234.8,66.7c-0.7-0.8-3-0.5-3-0.5c-5.4,0.2-10.2,4-10.2,4l0.9-5.5h28.6l1.5,5.6c0,0-5-4.7-11-3.9
		c-0.6,0-1.1,0.1-1.7,0.3l-0.4,35.1l3.2,1.8l-11.1,0.2l3.1-1.9L234.8,66.7z"/>
	<path class="st0" d="M126.1,69c-5.3,10.8,22.8,7.2,25.1,18.5c0.4,19.6-26.6,13.2-28.4,14l-0.9-7.5c1.3,2.2,3.2,3.9,5.5,5.1
		c6.2,2.9,19.1-1.4,19.4-7.2c0.6-10.2-25.3-8.4-26-18.8c-0.8-12.2,15.5-9.5,22.1-5.8c0,0,1.2,0.2,1.6-1.8c0.1-0.4,0.1-0.7,0.1-0.7
		c-0.1,0.7,0.9,8.3,0.9,8.3C132.5,59.7,126.1,69,126.1,69z"/>
	<path class="st0" d="M264.3,56.3c-7.6,15.4,32.5,10.3,35.8,26.4c0.6,27.9-38,18.9-40.5,19.9l-1.4-10.7c1.9,3.1,4.6,5.6,7.8,7.2
		c8.9,4.2,27.3-2,27.8-10.4c0.9-14.6-36.1-12-37.1-26.8c-1.2-17.4,22.1-13.5,31.6-8.2c0,0,1.7,0.2,2.3-2.5c0.1-0.5,0.2-1,0.2-1
		c-0.2,1,1.2,11.8,1.2,11.8C273.4,43,264.3,56.3,264.3,56.3z"/>
</g>
<g id="Letras">
	<text transform="matrix(1 0 0 1 197.5605 118.7872)" class="st1 st2 st3">Asesorías &amp; Cobranzas</text>
</g>
<g id="Assets">
	<path class="st4" d="M117.1,100.7l-14.5,0.1c3-2.2,3.8-4.2,3.9-5.6c0.4-6.4-11.8-13.7-30.5-18.8c-0.3,0.7-6.3,15-7.7,20
		c-0.2,0.6-0.6,1.8,0.1,2.7s2.5,0.5,4.2,1.5c-8.9,0.2-13.4,0.1-13.4-0.1l0,0c1.1-1,2.2-2.1,3.2-3.2l21.1-53.1L81,42.6l15.7-0.1
		c-1.1,0.4-2.1,1-3.1,1.7C101.5,63,109.3,81.8,117.1,100.7z M87.5,47.9L78.9,71l19.4,7.7L87.5,47.9z"/>
	<path class="st4" d="M156.2,67.7c-5.3,10.8,22.8,7.2,25.1,18.5c0.4,19.6-26.6,13.2-28.4,14l-0.9-7.5c1.3,2.2,3.2,3.9,5.5,5.1
		c6.2,2.9,19.1-1.4,19.4-7.3c0.6-10.2-25.3-8.4-26-18.8c-0.8-12.2,15.5-9.5,22.1-5.8c0,0,1.2,0.2,1.6-1.8c0.1-0.2,0.1-0.5,0.1-0.7
		c-0.1,0.7,0.9,8.2,0.9,8.2C162.6,58.3,156.2,67.7,156.2,67.7z"/>
	<path class="st4" d="M188.4,66.1l-2.9-2.8h24.4c0.5,1.2,2.7,6.6,2.7,6.6c-8.5-7.9-19.1-3.9-19.6-2.6l-0.1,7.2l10.1-0.1
		c1.4-0.5,2.6-1.4,3.5-2.6c0.2,2.2,0.3,4.3,0.2,6.5l-3.3-1.3L193.1,77v20.7c0.5,1,8.5,3.2,14.2,1.7l6.2-6l-1.1,7.7h-28l4-2.6"/>
	<path class="st4" d="M232.8,65.3c-0.7-0.8-3-0.5-3-0.5c-5.4,0.2-10.2,4-10.2,4l0.9-5.5h28.6l1.5,5.6c0,0-5-4.7-11-3.9
		c-0.6,0-1.2,0.1-1.7,0.3l-0.4,35.1l3.2,1.8l-11.1,0.2l3.1-1.9L232.8,65.3z"/>
	<path class="st4" d="M124.1,67.7c-5.3,10.8,22.8,7.2,25.1,18.5c0.4,19.6-26.6,13.2-28.3,14l-1-7.5c1.3,2.2,3.2,3.9,5.5,5.1
		c6.2,2.9,19.1-1.4,19.4-7.3c0.6-10.2-25.3-8.4-26-18.8c-0.8-12.2,15.5-9.5,22.1-5.8c0,0,1.2,0.2,1.6-1.8c0.1-0.2,0.1-0.5,0.1-0.7
		c-0.1,0.7,0.9,8.2,0.9,8.2C130.5,58.3,124.1,67.7,124.1,67.7z"/>
	<path class="st4" d="M262.3,54.9c-7.6,15.4,32.6,10.3,35.8,26.4c0.6,27.9-38,18.9-40.5,19.9l-1.4-10.7c1.9,3.1,4.6,5.6,7.8,7.2
		c8.8,4.2,27.3-2,27.8-10.4c0.9-14.6-36.1-12-37.1-26.8c-1.2-17.4,22.1-13.5,31.6-8.3c0,0,1.7,0.2,2.3-2.5c0.1-0.5,0.2-1,0.2-1
		c-0.2,1,1.2,11.8,1.2,11.8C271.4,41.6,262.3,54.9,262.3,54.9z"/>
</g>
</svg>
